<svg width="38" height="31" viewBox="0 0 38 31" fill="none" xmlns="http://www.w3.org/2000/svg">
<path class="icon-about-stroke" d="M29.1696 28.2973H6.05312V22.1911H3V9.10624H6.05312V6.05312H9.54241V3H32.2227V6.05312H35.2759V12.1594H29.1696V28.2973Z" fill="#C4C4C4" stroke="black" stroke-width="4"/>
<mask id="mask0_899_215" style="mask-type:alpha" maskUnits="userSpaceOnUse" x="3" y="3" width="33" height="26">
<path d="M29.1696 28.2973H6.05312V22.1911H3V9.10624H6.05312V6.05312H9.54241V3H32.2227V6.05312H35.2759V12.1594H29.1696V28.2973Z" fill="#C4C4C4"/>
</mask>
<g mask="url(#mask0_899_215)">
<path d="M29.1697 28.2975H6.05322V10.8511H29.1697V28.2975Z" fill="#FFCFAA"/>
<path d="M16.085 18.7017H12.5957V22.1909H16.085V18.7017Z" fill="#47202E"/>
<path d="M29.1698 18.7017H25.6805V22.1909H29.1698V18.7017Z" fill="#47202E"/>
<path d="M12.5956 15.649V12.1597H29.1697V15.649H12.5956Z" fill="#DA9273"/>
<path d="M12.5956 28.2976V18.7021H6.05322V28.2976H12.5956Z" fill="#DA9273"/>
<path d="M9.54251 22.1909H12.5956V18.7017H6.05322V28.2972H9.54251V22.1909Z" fill="#B5775F"/>
<path d="M9.5423 25.2439H5.61686H-0.0532227V0.382812H35.2758V12.5953H12.5954V18.7015H9.5423V25.2439Z" fill="#47202E"/>
<path d="M12.5957 9.10637V2.56396H35.7122V9.10637H12.5957Z" fill="#B5775F"/>
<path d="M12.5957 12.5956V6.05322H32.2229V9.10634H35.276V12.5956H12.5957Z" fill="#7F534E"/>
<path d="M12.5956 3H9.54248V6.05312H12.5956V3Z" fill="#7F534E"/>
</g>
</svg>
