<svg width="264" height="264" viewBox="0 0 264 264" fill="none" xmlns="http://www.w3.org/2000/svg">
<path class="icon-about-stroke" d="M49.5 8H41.5V16V38.5H16H8V46.5V217V225H16H41.5V248V256H49.5H215H223V248V223.5H248H256V215.5V46.5V38.5H248H223V16V8H215H49.5Z" fill="#240850" stroke="#360a68" stroke-width="16"/>
<path d="M82 197.25V66H175.75V84.75H194.5V103.5H213.25V159.75H194.5V178.5H175.75V197.25H82ZM119.5 178.5H157V159.75H175.75V103.5H157V84.75H119.5V178.5Z" fill="#DF1041"/>
<path d="M68 197.25V66H161.75V84.75H180.5V103.5H199.25V159.75H180.5V178.5H161.75V197.25H68ZM105.5 178.5H143V159.75H161.75V103.5H143V84.75H105.5V178.5Z" fill="#34B1F8"/>
</svg>
