<svg width="264" height="264" viewBox="0 0 264 264" fill="none" xmlns="http://www.w3.org/2000/svg">
<path d="M49.5 7.99902H41.5V15.999V38.499H16H8V46.499V216.999V224.999H16H41.5V247.999V255.999H49.5H215H223V247.999V223.499H248H256V215.499V46.499V38.499H248H223V15.999V7.99902H215H49.5Z" fill="#140527" stroke="white" stroke-width="16"/>
<path d="M187.731 76.308H179.597H171.816V67.7995H155.548V60.3545H147.414H107.451V67.7995H91.537V76.308H75.2689V92.2615H67.4885V108.215H59.3545V156.785H67.1349V172.384H75.2689V188.692H91.537V196.491H107.805V204.645H131.5H139.988H155.902V196.491H162.975V188.692H171.816H179.597H188.084V172.384H195.865V156.785H203.645V140.477V131.968V108.215H195.865V92.2615H187.731V76.308Z" fill="#34B1F8"/>
<path d="M67.7598 108.334V92.2239H75.8148V76.464H91.5747V92.2239H99.6298V100.279H107.685V108.334H123.795V124.444H107.685V139.854H115.74V148.259H107.685V139.854H99.6298V132.499H83.5197V116.739H75.8148V108.334H67.7598Z" fill="#34F8B1"/>
<path d="M187.535 100.279H179.13V132.499H203.645V108.334H195.24V92.2239H187.535V100.279Z" fill="#34F8B1"/>
<path d="M155.665 156.314H131.15V172.074H139.205V180.129H147.26V196.239H139.205V203.944H155.665V196.239H163.37V188.184H171.775V180.129H163.37V172.074H155.665V156.314Z" fill="#34F8B1"/>
<path d="M155.665 60.7041H147.26V76.464H163.37V84.5191H171.425V68.4089H155.665V60.7041Z" fill="#34F8B1"/>
<path fill-rule="evenodd" clip-rule="evenodd" d="M187.185 68.4097V76.815H179.13V84.5198H171.425V68.4097H187.185ZM155.315 61.0551H171.425V68.4097H155.315V61.0551ZM107.685 61.0551V53H155.315V61.0551H147.26V76.815H139.555V61.0551H107.685ZM163.37 84.5198H171.425V92.5749H163.37V84.5198ZM163.37 84.5198V76.815H147.26V84.5198H163.37Z" fill="#34F8B1"/>
<path d="M202.945 156.315H211V108.335H202.945V131.8H179.13V140.205H202.945V156.315Z" fill="#34F8B1"/>
<path d="M171.425 131.8H179.13V100.28H171.425V131.8Z" fill="#34F8B1"/>
<path d="M179.13 92.5749V100.28H187.185V92.5749H179.13Z" fill="#34F8B1"/>
<path d="M202.945 108.335V84.5198H195.24V76.815H187.185V92.5749H195.24V108.335H202.945Z" fill="#34F8B1"/>
<path d="M91.9251 68.4097H75.815V76.815H91.9251V68.4097Z" fill="#34F8B1"/>
<path d="M107.685 61.0551H91.9251V68.4097H107.685V61.0551Z" fill="#34F8B1"/>
<path d="M75.815 76.815H68.1101V92.5749H75.815V76.815Z" fill="#34F8B1"/>
<path d="M91.9251 76.815V92.5749H99.63V100.28H107.685V84.5198H99.63V76.815H91.9251Z" fill="#34F8B1"/>
<path d="M123.445 108.335V123.744H131.5V108.335H123.445Z" fill="#34F8B1"/>
<path d="M107.685 140.205H116.09V131.8H123.445V123.744H107.685V140.205Z" fill="#34F8B1"/>
<path d="M83.87 140.205H99.63V131.8H83.87V140.205Z" fill="#34F8B1"/>
<path fill-rule="evenodd" clip-rule="evenodd" d="M107.685 108.335V100.28H123.445V108.335H107.685Z" fill="#34F8B1"/>
<path d="M116.09 140.205V147.559H123.445V140.205H116.09Z" fill="#34F8B1"/>
<path d="M116.09 147.559H107.685V156.315H116.09V147.559Z" fill="#34F8B1"/>
<path d="M107.685 140.205H99.63V147.559H107.685V140.205Z" fill="#34F8B1"/>
<path d="M83.87 116.39H75.815V131.8H83.87V116.39Z" fill="#34F8B1"/>
<path d="M75.815 108.335H68.1101V116.39H75.815V108.335Z" fill="#34F8B1"/>
<path d="M68.1101 92.5749H60.0551V108.335H68.1101V92.5749Z" fill="#34F8B1"/>
<path d="M52 156.315H60.0551V108.335H52V156.315Z" fill="#34F8B1"/>
<path d="M131.5 147.559V156.315H155.665V147.559H131.5Z" fill="#34F8B1"/>
<path d="M123.445 171.725H131.5V156.315H123.445V171.725Z" fill="#34F8B1"/>
<path d="M131.5 179.78H139.905V171.725H131.5V179.78Z" fill="#34F8B1"/>
<path d="M139.905 179.78V195.54H147.96V179.78H139.905Z" fill="#34F8B1"/>
<path d="M163.37 156.315H155.665V171.725H163.37V156.315Z" fill="#34F8B1"/>
<path d="M171.425 171.725H163.37V179.78H171.425V171.725Z" fill="#34F8B1"/>
<path d="M155.665 203.595H171.425V195.54H187.535V187.835H179.13V179.78H171.425V187.835H162.67V195.54H155.665V203.595Z" fill="#34F8B1"/>
<path d="M187.535 187.835H195.24V171.725H187.535V187.835Z" fill="#34F8B1"/>
<path d="M195.24 171.725H202.945V156.315H195.24V171.725Z" fill="#34F8B1"/>
<path d="M108.035 203.595V211.65H155.665V203.595H139.905V195.54H131.5V203.595H108.035Z" fill="#34F8B1"/>
<path d="M91.9251 195.54V203.595H108.035V195.54H91.9251Z" fill="#34F8B1"/>
<path d="M75.815 187.835V195.54H91.9251V187.835H75.815Z" fill="#34F8B1"/>
<path d="M67.7599 171.725V187.835H75.815V171.725H67.7599Z" fill="#34F8B1"/>
<path d="M60.0551 156.315V171.725H67.7599V156.315H60.0551Z" fill="#34F8B1"/>
</svg>
